<?xml version="1.0" standalone="no"?>
<!DOCTYPE svg PUBLIC "-//W3C//DTD SVG 20010904//EN"
 "http://www.w3.org/TR/2001/REC-SVG-20010904/DTD/svg10.dtd">
<svg version="1.0" xmlns="http://www.w3.org/2000/svg"
 width="800.000000pt" height="800.000000pt" viewBox="0 0 800.000000 800.000000"
 preserveAspectRatio="xMidYMid meet">
<metadata>
Created by potrace 1.11, written by Peter Selinger 2001-2013
</metadata>
<g transform="translate(0.000000,800.000000) scale(0.100000,-0.100000)"
fill="#000000" stroke="none">
<path d="M0 4000 l0 -4000 4000 0 4000 0 0 4000 0 4000 -4000 0 -4000 0 0
-4000z m3814 3883 c9 -9 -3685 -3704 -3696 -3697 -4 3 -8 837 -8 1855 l0 1849
1848 0 c1017 0 1852 -3 1856 -7z m4076 -1841 c0 -1017 -3 -1852 -7 -1856 -9
-9 -3704 3685 -3697 3696 3 4 837 8 1855 8 l1849 0 0 -1848z m-1938 -89 c1536
-1536 1928 -1933 1928 -1953 0 -37 -3843 -3880 -3880 -3880 -37 0 -3880 3843
-3880 3880 0 37 3843 3880 3880 3880 20 0 417 -392 1952 -1927z m-2138 -5835
c-3 -4 -837 -8 -1855 -8 l-1849 0 0 1848 c0 1017 3 1852 7 1856 9 9 3704
-3685 3697 -3696z m4076 1841 l0 -1849 -1848 0 c-1017 0 -1852 3 -1856 7 -9 9
3685 3704 3696 3697 4 -3 8 -837 8 -1855z"/>
<path d="M4695 5579 c-241 -21 -444 -72 -610 -154 -266 -130 -387 -319 -389
-605 0 -178 38 -327 179 -695 153 -399 190 -597 150 -790 -56 -267 -299 -457
-652 -510 -414 -62 -879 84 -1008 316 -28 50 -30 62 -30 154 0 92 2 104 30
154 56 101 171 176 343 223 71 20 109 22 488 27 l411 6 -76 165 -77 165 -439
3 c-575 4 -771 -9 -1000 -69 -360 -93 -555 -310 -555 -619 0 -336 226 -572
696 -729 294 -97 598 -141 985 -141 313 0 534 26 786 91 317 82 571 215 744
388 133 134 203 267 234 448 41 236 -6 472 -193 958 -168 438 -200 589 -148
701 49 105 141 148 314 148 56 -1 104 -3 107 -6 2 -2 0 -33 -6 -68 -47 -292
222 -569 554 -570 70 0 192 24 250 50 146 65 270 202 307 338 18 69 14 198 -9
264 -42 123 -142 235 -271 302 -119 63 -147 66 -605 64 -225 0 -455 -5 -510
-9z"/>
</g>
</svg>
